<?xml version="1.0" standalone="no"?>
<!DOCTYPE svg PUBLIC "-//W3C//DTD SVG 20010904//EN"
 "http://www.w3.org/TR/2001/REC-SVG-20010904/DTD/svg10.dtd">
<svg version="1.0" xmlns="http://www.w3.org/2000/svg"
 width="500.000000pt" height="500.000000pt" viewBox="0 0 500.000000 500.000000"
 preserveAspectRatio="xMidYMid meet">

<g transform="translate(0.000000,500.000000) scale(0.100000,-0.100000)"
fill="#000000" stroke="none">
<path d="M2220 4985 c-401 -49 -762 -178 -1081 -387 -168 -109 -272 -194 -410
-335 -146 -148 -209 -224 -296 -355 -111 -166 -164 -263 -236 -433 -399 -938
-181 -2042 544 -2751 144 -140 221 -205 351 -292 639 -429 1402 -543 2144
-322 290 87 619 261 842 447 455 379 758 880 871 1439 122 600 17 1250 -283
1758 -125 210 -214 326 -395 509 -401 408 -909 653 -1497 722 -153 18 -408 18
-554 0z m1820 -1436 c0 -12 -26 -54 -57 -93 -97 -119 -441 -456 -532 -521
-208 -147 -533 -324 -756 -413 -237 -94 -839 -276 -1089 -329 -44 -9 -85 -22
-91 -29 -5 -6 -28 -24 -49 -40 l-39 -29 29 -5 c35 -6 43 -37 18 -75 -16 -25
-16 -27 5 -41 27 -19 27 -39 -2 -68 -18 -18 -21 -27 -13 -39 15 -24 -12 -47
-110 -96 -98 -48 -154 -60 -173 -37 -18 21 -1 41 47 57 87 28 162 68 156 83
-3 8 4 24 15 35 22 22 27 41 11 41 -15 0 -12 44 5 66 21 28 19 32 -17 36 -39
4 -49 35 -24 73 9 13 16 26 16 27 0 2 -27 1 -59 0 -72 -4 -106 10 -91 38 12
23 57 36 174 51 67 9 93 9 107 1 14 -9 35 -8 90 3 288 61 866 237 1114 340
289 120 678 354 837 504 116 109 269 267 320 331 24 30 61 76 82 103 40 51 76
63 76 26z"/>
</g>
</svg>
